# xmcd
#
# Track frame offsets:
#	150
#	14093
#	33136
#	57230
#	72455
#	90307
#	105457
#	120383
#	137488
#	156826
#	174082
#	189460
#	203222
#	221865
#	238414
#	265141
#
# Disc length: 3954 seconds
#
# Revision: 3
# Processed by: cddbd v1.5.2PL0 Copyright (c) Steve Scherf et al.
# Submitted via: audiograbber 1.83.01
#
DISCID=dd0f7010
DTITLE=Various Artist - ASK1540
DYEAR=2005
DGENRE=Karaoke
TTITLE0=Jackson, Alan - The Talkin' Song Repair Blues
TTITLE1=Big And Rich - Big Time
TTITLE2=Big And Rich - Real World
TTITLE3=Shelton, Blake  - Goodbye Time
TTITLE4=Brooks And Dunn - It's Getting Better All The Time
TTITLE5=Jewell, Buddy - If She Were Any Other Woman
TTITLE6=Morgan, Craig - That's What I Love About Sunday
TTITLE7=Bentley, Dierks - Lot Of Leavin' Left To Do
TTITLE8=Strait, George - You'll Be There
TTITLE9=Wilson, Gretchen - Holdin' You
TTITLE10=Roberts, Julie - Wake Up Older
TTITLE11=Anderson, Keith - Pickin' Wildflowers
TTITLE12=Urban, Keith - Making Memories Of Us
TTITLE13=Rimes, LeAnn - Probably Wouldn't Be This Way
TTITLE14=Adkins, Trace - Songs About Me
TTITLE15=Data - Data Track
EXTD=
EXTT0=
EXTT1=
EXTT2=
EXTT3=
EXTT4=
EXTT5=
EXTT6=
EXTT7=
EXTT8=
EXTT9=
EXTT10=
EXTT11=
EXTT12=
EXTT13=
EXTT14=
EXTT15=
PLAYORDER=
